HIERARCHY
ROOT Hips
{
  OFFSET 1.44925e-005 102.336 -0.101585
  CHANNELS 6 Xposition Yposition Zposition Zrotation Xrotation Yrotation
  JOINT LeftUpLeg
  {
    OFFSET 8.9458 -8.66707 0.101652
    CHANNELS 3 Zrotation Xrotation Yrotation
    JOINT LeftLeg
    {
      OFFSET 0 -44.4227 1.3727
      CHANNELS 3 Zrotation Xrotation Yrotation
      JOINT LeftFoot
      {
        OFFSET -0.253549 -42.0924 -1.46059
        CHANNELS 3 Zrotation Xrotation Yrotation
        JOINT LeftToes
        {
          OFFSET -0.04 -4.41509 8.4991
          CHANNELS 3 Zrotation Xrotation Yrotation
          End Site
          {
            OFFSET 0.08 -0.047448 9.77979
          }
        }
      }
    }
  }
  JOINT Spine
  {
    OFFSET 0 11.8905 0
    CHANNELS 3 Zrotation Xrotation Yrotation
    JOINT Spine1
    {
      OFFSET 0 25.6574 0.127663
      CHANNELS 3 Zrotation Xrotation Yrotation
      JOINT RightShoulder
      {
        OFFSET -8.99 -0.362252 -0.22
        CHANNELS 3 Zrotation Xrotation Yrotation
        JOINT RightArm
        {
          OFFSET -10.2827 -0.00338 0.322123
          CHANNELS 3 Zrotation Xrotation Yrotation
          JOINT RightForeArm
          {
            OFFSET -26.364 0.099144 -1.42434
            CHANNELS 3 Zrotation Xrotation Yrotation
            JOINT RightHand
            {
              OFFSET -22.0324 0.085362 1.02216
              CHANNELS 3 Zrotation Xrotation Yrotation
              End Site
              {
                OFFSET -13.3284 -0.6 1.50291
              }
            }
          }
        }
      }
      JOINT LeftShoulder1
      {
        OFFSET 8.99 -0.362252 -0.22
        CHANNELS 3 Zrotation Xrotation Yrotation
        JOINT LeftArm
        {
          OFFSET 10.2827 -0.00337999 0.322123
          CHANNELS 3 Zrotation Xrotation Yrotation
          JOINT LeftForeArm
          {
            OFFSET 26.2597 0.099144 -1.42434
            CHANNELS 3 Zrotation Xrotation Yrotation
            JOINT LeftHand
            {
              OFFSET 22.0902 0.085362 1.02216
              CHANNELS 3 Zrotation Xrotation Yrotation
              End Site
              {
                OFFSET 13.419 -0.6 1.50291
              }
            }
          }
        }
      }
      JOINT Head
      {
        OFFSET 0 8.73416 0.011341
        CHANNELS 3 Zrotation Xrotation Yrotation
        End Site
        {
          OFFSET -0.29 12.7742 2.51395
        }
      }
    }
  }
  JOINT RightUpLeg
  {
    OFFSET -8.9458 -8.66707 0.101652
    CHANNELS 3 Zrotation Xrotation Yrotation
    JOINT RightLeg
    {
      OFFSET 0 -44.4227 1.3727
      CHANNELS 3 Zrotation Xrotation Yrotation
      JOINT RightFoot
      {
        OFFSET 0.253549 -42.0924 -1.46059
        CHANNELS 3 Zrotation Xrotation Yrotation
        JOINT RightToes
        {
          OFFSET 0.04 -4.41509 8.4991
          CHANNELS 3 Zrotation Xrotation Yrotation
          End Site
          {
            OFFSET -0.08 -0.137448 9.77979
          }
        }
      }
    }
  }
}
MOTION
Frames:	10
Frame Time:	0.0333333
44.2754 99.0389 -0.711153 -9.58964 1.98044 -86.9077 0.893781 -9.84642 -2.21706 2.63645 68.1097 19.2435 -5.39131 -7.70287 0.0293333 -1.38309e-009 8.75194e-006 -1.46472e-008 10.6699 12.353 -1.00747 -3.66835 -0.205865 1.83159 37.2934 1.75686 0.040262 39.3848 -18.7647 10.502 8.767 37.473 7.51022 -12.4714 9.175 1.76281 -46.1974 3.59336 -3.28748 -27.2792 -10.8583 12.4378 -4.34842 34.1675 -15.1368 5.82328 9.61819 -0.917488 0.356944 -13.643 -9.47876 4.36753 -5.50066 -4.24 0.849412 26.1799 -17.0371 0.331963 -16.6907 -0.205329 0.0462048 0.000530889 0.662642 
42.2491 99.2375 -1.13945 -9.83727 1.32302 -86.8534 -0.281584 -12.1874 -3.25705 2.32124 65.7688 18.5819 -5.48232 -9.38262 -0.0432383 -1.38309e-009 8.75194e-006 -1.46472e-008 10.5029 12.5381 -0.758586 -4.50526 -0.23378 2.16037 37.0523 1.75409 0.0545305 39.804 -16.3663 12.0559 7.98528 34.7877 9.4576 -12.6454 9.15919 1.81243 -46.1886 3.59061 -3.27533 -27.207 -9.97171 12.5647 -3.79119 32.624 -16.1483 5.82328 9.61819 -0.917488 0.187173 -13.0447 -9.67738 3.9735 -3.6154 -4.67995 0.871803 25.7798 -16.755 0.0598539 -17.772 -0.234097 0.0462048 0.000530889 0.662642 
40.2701 99.4573 -1.52624 -10.0497 0.759355 -86.9027 -1.18699 -13.891 -4.20956 1.94591 61.4197 18.266 -6.3943 -10.6118 -0.118162 -1.38309e-009 8.75194e-006 -1.46472e-008 10.3926 12.6773 -0.486779 -5.44476 -0.201505 2.46673 36.8508 1.75138 0.0639277 39.8543 -13.2805 13.3751 6.98734 31.2999 11.8811 -12.677 9.15105 1.86399 -46.1815 3.59048 -3.26401 -27.0613 -9.10921 12.2556 -3.3944 31.2752 -16.9625 5.82328 9.61819 -0.917488 -0.0404731 -12.6417 -9.72212 3.64835 -1.6622 -5.04162 0.935785 25.0777 -16.4544 -0.0778635 -18.6044 -0.252852 0.0462048 0.000530889 0.662642 
38.349 99.6954 -1.88703 -10.1644 0.277603 -87.0924 -1.75222 -15.1492 -4.87795 1.62458 55.5844 18.1037 -7.65971 -10.71 -0.156578 -1.38309e-009 8.75194e-006 -1.46472e-008 10.0973 12.7952 -0.143663 -6.23171 -0.183937 2.7436 36.6626 1.75037 0.0726738 39.3265 -9.07733 14.3662 5.90165 26.9327 14.7457 -12.6208 9.15147 1.84205 -46.1893 3.59484 -3.26727 -26.8913 -8.51405 11.7092 -3.11187 30.1567 -17.5984 5.82328 9.61819 -0.917488 -0.197013 -12.3514 -9.6556 3.36356 0.300441 -5.2768 1.04093 23.9816 -16.1522 -0.0822568 -19.1464 -0.257407 0.0462048 0.000530889 0.662642 
36.5036 99.8795 -2.22469 -10.2035 -0.120188 -87.3194 -2.08909 -16.0858 -5.33363 1.38816 49.0917 17.8519 -8.44689 -10.2123 -0.144858 -1.38309e-009 8.75194e-006 -1.46472e-008 9.55061 12.9553 0.161234 -6.7231 -0.192364 2.90376 36.5377 1.7504 0.0850841 38.4867 -4.84131 15.3554 5.06975 22.9882 17.319 -12.6546 9.15567 1.79307 -46.1999 3.59825 -3.27855 -26.7441 -8.29085 11.1565 -2.75937 29.2857 -18.246 5.82328 9.61819 -0.917488 -0.223983 -12.0926 -9.49042 3.13135 2.16617 -5.45906 1.15497 22.7874 -15.8337 0.00182586 -19.7021 -0.252632 0.0462048 0.000530889 0.662642 
34.7091 99.9717 -2.54189 -10.2037 -0.409802 -87.5086 -2.25004 -16.7403 -5.61829 1.21232 42.5139 17.3885 -8.74059 -10.3953 -0.164422 -1.38309e-009 8.75194e-006 -1.46472e-008 8.86662 13.1447 0.356012 -6.94552 -0.194454 2.93216 36.522 1.75191 0.0955697 37.804 -1.99994 16.5957 4.53306 20.924 18.9998 -12.6676 9.16043 1.8212 -46.1247 3.59436 -3.28146 -26.6668 -8.20322 10.6224 -2.34345 28.5432 -18.9482 5.82328 9.61819 -0.917488 -0.154262 -11.9095 -9.24317 3.01996 3.85967 -5.63015 1.25986 21.8036 -15.5483 -0.0338402 -20.3929 -0.261559 0.0462048 0.000530889 0.662642 
32.9214 100.025 -2.83636 -10.1379 -0.62954 -87.769 -2.23359 -17.1141 -5.53859 1.08225 35.8165 17.0154 -8.87484 -11.0658 -0.216279 -1.38309e-009 8.75194e-006 -1.46472e-008 8.13372 13.2769 0.531208 -7.10107 -0.16025 2.95133 36.5667 1.75539 0.0988704 37.5276 -0.565742 17.8868 4.15431 20.3932 19.8812 -12.513 9.16317 1.89818 -45.9336 3.5747 -3.27165 -26.6322 -7.79951 10.0114 -2.0073 27.7174 -19.6357 5.82328 9.61819 -0.917488 -0.0179115 -11.846 -8.95983 2.98776 5.41528 -5.72896 1.31837 20.9141 -15.2899 -0.176021 -21.0169 -0.283014 0.0462048 0.000530889 0.662642 
31.1159 100.083 -3.08173 -9.98057 -0.842428 -88.2159 -2.07657 -17.144 -4.8673 1.0073 28.8614 17.1281 -8.86617 -11.2252 -0.227717 -1.38309e-009 8.75194e-006 -1.46472e-008 7.36807 13.285 0.770143 -7.3233 -0.0381919 3.05683 36.561 1.75729 0.102009 37.652 0.203928 18.8808 3.94478 20.2538 20.3227 -12.4174 9.16145 1.93149 -45.7641 3.55591 -3.26028 -26.5002 -7.04218 9.36243 -1.76394 26.8133 -20.3008 5.82328 9.61819 -0.917488 0.12787 -11.846 -8.70415 2.92561 6.92079 -5.70489 1.27261 19.8858 -14.9663 -0.178769 -21.4865 -0.287332 0.0462048 0.000530889 0.662642 
29.2616 100.119 -3.24188 -9.77157 -1.00613 -88.8007 -1.83369 -16.8209 -3.5877 0.986059 22.0445 17.4184 -8.58471 -11.0214 -0.204408 -1.38309e-009 8.75194e-006 -1.46472e-008 6.6342 13.1579 1.01937 -7.53386 0.188747 3.20022 36.4805 1.75875 0.111617 37.9857 0.872035 19.4798 3.95827 20.0621 20.4308 -12.5865 9.15161 1.92409 -45.7446 3.55424 -3.2599 -26.1917 -6.49575 8.86226 -1.50191 26.1398 -20.9473 5.82328 9.61819 -0.917488 0.185056 -11.796 -8.4809 2.85059 8.43375 -5.59903 1.12459 18.7696 -14.5379 0.0192097 -21.912 -0.26563 0.0462048 0.000530889 0.662642 
27.3165 100.118 -3.30846 -9.5451 -1.04734 -89.3921 -1.56126 -16.3548 -2.28586 0.863376 16.1253 17.5045 -8.02886 -10.976 -0.184844 -1.38309e-009 8.75194e-006 -1.46472e-008 6.00683 12.9052 1.18985 -7.64214 0.459458 3.28761 36.4548 1.76057 0.119542 38.3086 1.51396 19.7724 4.09579 20.1785 20.1437 -12.7351 9.14297 1.91585 -45.8029 3.56483 -3.27166 -25.8135 -6.56699 8.60649 -1.20677 25.8939 -21.4802 5.82328 9.61819 -0.917488 0.149972 -11.645 -8.19383 2.83789 9.97603 -5.49732 0.965157 17.6853 -14.069 0.330487 -22.3112 -0.227282 0.0462048 0.000530889 0.662642 
